<svg width="512" height="512" viewBox="0 0 512 512" fill="none" xmlns="http://www.w3.org/2000/svg">
<path d="M277.333 447.995V115.493L390.251 228.411C392.224 230.428 394.577 232.034 397.175 233.135C399.773 234.237 402.563 234.812 405.385 234.827C408.206 234.843 411.003 234.298 413.613 233.226C416.222 232.153 418.593 230.573 420.588 228.578C422.583 226.582 424.163 224.211 425.235 221.601C426.307 218.991 426.851 216.195 426.835 213.373C426.819 210.551 426.243 207.761 425.142 205.163C424.04 202.566 422.434 200.213 420.416 198.24L271.083 48.9068C267.082 44.9074 261.657 42.6606 256 42.6606C250.343 42.6606 244.918 44.9074 240.917 48.9068L91.5839 198.24C89.5991 200.219 88.0251 202.571 86.9523 205.16C85.8796 207.749 85.3294 210.525 85.3333 213.328C85.3342 217.547 86.5858 221.67 88.93 225.178C91.2742 228.685 94.6057 231.419 98.5033 233.033C102.401 234.648 106.69 235.07 110.827 234.247C114.965 233.424 118.766 231.393 121.749 228.411L234.667 115.493V447.995C234.667 453.653 236.914 459.079 240.915 463.08C244.916 467.081 250.342 469.328 256 469.328C261.658 469.328 267.084 467.081 271.085 463.08C275.086 459.079 277.333 453.653 277.333 447.995Z" fill="black"/>
</svg>
